<svg width="335" height="566" viewBox="0 0 335 566" fill="none" xmlns="http://www.w3.org/2000/svg">
<g clip-path="url(#clip0_495_5897)">
<path fill-rule="evenodd" clip-rule="evenodd" d="M51.6966 515.997C45.986 515.997 41.3571 511.52 41.3571 505.997C41.3571 500.474 45.986 495.997 51.6966 495.997C57.4071 495.997 62.0361 500.474 62.0361 505.997C67.7466 505.997 72.3756 510.474 72.3756 515.997C72.3756 521.52 67.7466 525.997 62.0361 525.997C56.3256 525.997 51.6966 521.52 51.6966 515.997ZM10.3385 555.997C4.62802 555.997 -0.000976562 551.52 -0.000976562 545.997C-0.000976562 540.474 4.62802 535.997 10.3385 535.997C16.049 535.997 20.678 540.474 20.678 545.997C26.3885 545.997 31.0175 550.474 31.0175 555.997C31.0175 561.52 26.3885 565.997 20.678 565.997C14.9675 565.997 10.3385 561.52 10.3385 555.997ZM18.6101 545.997C18.6101 541.579 14.9065 537.997 10.3385 537.997C5.77054 537.997 2.06692 541.579 2.06692 545.997C2.06692 550.415 5.77054 553.997 10.3385 553.997C14.9065 553.997 18.6101 550.415 18.6101 545.997ZM59.9682 505.997C59.9682 501.579 56.2646 497.997 51.6966 497.997C47.1286 497.997 43.425 501.579 43.425 505.997C43.425 510.415 47.1286 513.997 51.6966 513.997C56.2646 513.997 59.9682 510.415 59.9682 505.997Z" fill="black"/>
<path fill-rule="evenodd" clip-rule="evenodd" d="M51.6966 433.997C45.986 433.997 41.3571 429.52 41.3571 423.997C41.3571 418.474 45.986 413.997 51.6966 413.997C57.4071 413.997 62.0361 418.474 62.0361 423.997C67.7466 423.997 72.3756 428.474 72.3756 433.997C72.3756 439.52 67.7466 443.997 62.0361 443.997C56.3256 443.997 51.6966 439.52 51.6966 433.997ZM10.3385 473.997C4.62802 473.997 -0.000976562 469.52 -0.000976562 463.997C-0.000976562 458.474 4.62802 453.997 10.3385 453.997C16.049 453.997 20.678 458.474 20.678 463.997C26.3885 463.997 31.0175 468.474 31.0175 473.997C31.0175 479.52 26.3885 483.997 20.678 483.997C14.9675 483.997 10.3385 479.52 10.3385 473.997ZM18.6101 463.997C18.6101 459.579 14.9065 455.997 10.3385 455.997C5.77054 455.997 2.06692 459.579 2.06692 463.997C2.06692 468.415 5.77054 471.997 10.3385 471.997C14.9065 471.997 18.6101 468.415 18.6101 463.997ZM59.9682 423.997C59.9682 419.579 56.2646 415.997 51.6966 415.997C47.1286 415.997 43.425 419.579 43.425 423.997C43.425 428.415 47.1286 431.997 51.6966 431.997C56.2646 431.997 59.9682 428.415 59.9682 423.997Z" fill="black"/>
<path fill-rule="evenodd" clip-rule="evenodd" d="M51.6966 351.997C45.986 351.997 41.3571 347.52 41.3571 341.997C41.3571 336.474 45.986 331.997 51.6966 331.997C57.4071 331.997 62.0361 336.474 62.0361 341.997C67.7466 341.997 72.3756 346.474 72.3756 351.997C72.3756 357.52 67.7466 361.997 62.0361 361.997C56.3256 361.997 51.6966 357.52 51.6966 351.997ZM10.3385 391.997C4.62802 391.997 -0.000976562 387.52 -0.000976562 381.997C-0.000976562 376.474 4.62802 371.997 10.3385 371.997C16.049 371.997 20.678 376.474 20.678 381.997C26.3885 381.997 31.0175 386.474 31.0175 391.997C31.0175 397.52 26.3885 401.997 20.678 401.997C14.9675 401.997 10.3385 397.52 10.3385 391.997ZM18.6101 381.997C18.6101 377.579 14.9065 373.997 10.3385 373.997C5.77054 373.997 2.06692 377.579 2.06692 381.997C2.06692 386.415 5.77054 389.997 10.3385 389.997C14.9065 389.997 18.6101 386.415 18.6101 381.997ZM59.9682 341.997C59.9682 337.579 56.2646 333.997 51.6966 333.997C47.1286 333.997 43.425 337.579 43.425 341.997C43.425 346.415 47.1286 349.997 51.6966 349.997C56.2646 349.997 59.9682 346.415 59.9682 341.997Z" fill="black"/>
<path fill-rule="evenodd" clip-rule="evenodd" d="M51.6966 269.997C45.986 269.997 41.3571 265.52 41.3571 259.997C41.3571 254.474 45.986 249.997 51.6966 249.997C57.4071 249.997 62.0361 254.474 62.0361 259.997C67.7466 259.997 72.3756 264.474 72.3756 269.997C72.3756 275.52 67.7466 279.997 62.0361 279.997C56.3256 279.997 51.6966 275.52 51.6966 269.997ZM10.3385 309.997C4.62802 309.997 -0.000976562 305.52 -0.000976562 299.997C-0.000976562 294.474 4.62802 289.997 10.3385 289.997C16.049 289.997 20.678 294.474 20.678 299.997C26.3885 299.997 31.0175 304.474 31.0175 309.997C31.0175 315.52 26.3885 319.997 20.678 319.997C14.9675 319.997 10.3385 315.52 10.3385 309.997ZM18.6101 299.997C18.6101 295.579 14.9065 291.997 10.3385 291.997C5.77054 291.997 2.06692 295.579 2.06692 299.997C2.06692 304.415 5.77054 307.997 10.3385 307.997C14.9065 307.997 18.6101 304.415 18.6101 299.997ZM59.9682 259.997C59.9682 255.579 56.2646 251.997 51.6966 251.997C47.1286 251.997 43.425 255.579 43.425 259.997C43.425 264.415 47.1286 267.997 51.6966 267.997C56.2646 267.997 59.9682 264.415 59.9682 259.997Z" fill="black"/>
<path fill-rule="evenodd" clip-rule="evenodd" d="M51.6966 187.997C45.986 187.997 41.3571 183.52 41.3571 177.997C41.3571 172.474 45.986 167.997 51.6966 167.997C57.4071 167.997 62.0361 172.474 62.0361 177.997C67.7466 177.997 72.3756 182.474 72.3756 187.997C72.3756 193.52 67.7466 197.997 62.0361 197.997C56.3256 197.997 51.6966 193.52 51.6966 187.997ZM10.3385 227.997C4.62802 227.997 -0.000976562 223.52 -0.000976562 217.997C-0.000976562 212.474 4.62802 207.997 10.3385 207.997C16.049 207.997 20.678 212.474 20.678 217.997C26.3885 217.997 31.0175 222.474 31.0175 227.997C31.0175 233.52 26.3885 237.997 20.678 237.997C14.9675 237.997 10.3385 233.52 10.3385 227.997ZM18.6101 217.997C18.6101 213.579 14.9065 209.997 10.3385 209.997C5.77054 209.997 2.06692 213.579 2.06692 217.997C2.06692 222.415 5.77054 225.997 10.3385 225.997C14.9065 225.997 18.6101 222.415 18.6101 217.997ZM59.9682 177.997C59.9682 173.579 56.2646 169.997 51.6966 169.997C47.1286 169.997 43.425 173.579 43.425 177.997C43.425 182.415 47.1286 185.997 51.6966 185.997C56.2646 185.997 59.9682 182.415 59.9682 177.997Z" fill="black"/>
<path fill-rule="evenodd" clip-rule="evenodd" d="M51.6966 105.997C45.986 105.997 41.3571 101.52 41.3571 95.9966C41.3571 90.4736 45.986 85.9966 51.6966 85.9966C57.4071 85.9966 62.0361 90.4736 62.0361 95.9966C67.7466 95.9966 72.3756 100.474 72.3756 105.997C72.3756 111.52 67.7466 115.997 62.0361 115.997C56.3256 115.997 51.6966 111.52 51.6966 105.997ZM10.3385 145.997C4.62802 145.997 -0.000976562 141.52 -0.000976562 135.997C-0.000976562 130.474 4.62802 125.997 10.3385 125.997C16.049 125.997 20.678 130.474 20.678 135.997C26.3885 135.997 31.0175 140.474 31.0175 145.997C31.0175 151.52 26.3885 155.997 20.678 155.997C14.9675 155.997 10.3385 151.52 10.3385 145.997ZM18.6101 135.997C18.6101 131.579 14.9065 127.997 10.3385 127.997C5.77054 127.997 2.06692 131.579 2.06692 135.997C2.06692 140.415 5.77054 143.997 10.3385 143.997C14.9065 143.997 18.6101 140.415 18.6101 135.997ZM59.9682 95.9966C59.9682 91.5786 56.2646 87.9966 51.6966 87.9966C47.1286 87.9966 43.425 91.5786 43.425 95.9966C43.425 100.415 47.1286 103.997 51.6966 103.997C56.2646 103.997 59.9682 100.415 59.9682 95.9966Z" fill="black"/>
<path fill-rule="evenodd" clip-rule="evenodd" d="M136.481 515.997C130.77 515.997 126.141 511.52 126.141 505.997C126.141 500.474 130.77 495.997 136.481 495.997C142.191 495.997 146.82 500.474 146.82 505.997C152.531 505.997 157.16 510.474 157.16 515.997C157.16 521.52 152.531 525.997 146.82 525.997C141.11 525.997 136.481 521.52 136.481 515.997ZM95.1227 555.997C89.4122 555.997 84.7832 551.52 84.7832 545.997C84.7832 540.474 89.4122 535.997 95.1227 535.997C100.833 535.997 105.462 540.474 105.462 545.997C111.173 545.997 115.802 550.474 115.802 555.997C115.802 561.52 111.173 565.997 105.462 565.997C99.7517 565.997 95.1227 561.52 95.1227 555.997ZM103.394 545.997C103.394 541.579 99.6907 537.997 95.1227 537.997C90.5547 537.997 86.8511 541.579 86.8511 545.997C86.8511 550.415 90.5547 553.997 95.1227 553.997C99.6907 553.997 103.394 550.415 103.394 545.997ZM144.752 505.997C144.752 501.579 141.049 497.997 136.481 497.997C131.913 497.997 128.209 501.579 128.209 505.997C128.209 510.415 131.913 513.997 136.481 513.997C141.049 513.997 144.752 510.415 144.752 505.997Z" fill="black"/>
<path fill-rule="evenodd" clip-rule="evenodd" d="M136.481 433.997C130.77 433.997 126.141 429.52 126.141 423.997C126.141 418.474 130.77 413.997 136.481 413.997C142.191 413.997 146.82 418.474 146.82 423.997C152.531 423.997 157.16 428.474 157.16 433.997C157.16 439.52 152.531 443.997 146.82 443.997C141.11 443.997 136.481 439.52 136.481 433.997ZM95.1227 473.997C89.4122 473.997 84.7832 469.52 84.7832 463.997C84.7832 458.474 89.4122 453.997 95.1227 453.997C100.833 453.997 105.462 458.474 105.462 463.997C111.173 463.997 115.802 468.474 115.802 473.997C115.802 479.52 111.173 483.997 105.462 483.997C99.7517 483.997 95.1227 479.52 95.1227 473.997ZM103.394 463.997C103.394 459.579 99.6907 455.997 95.1227 455.997C90.5547 455.997 86.8511 459.579 86.8511 463.997C86.8511 468.415 90.5547 471.997 95.1227 471.997C99.6907 471.997 103.394 468.415 103.394 463.997ZM144.752 423.997C144.752 419.579 141.049 415.997 136.481 415.997C131.913 415.997 128.209 419.579 128.209 423.997C128.209 428.415 131.913 431.997 136.481 431.997C141.049 431.997 144.752 428.415 144.752 423.997Z" fill="black"/>
<path fill-rule="evenodd" clip-rule="evenodd" d="M136.481 351.997C130.77 351.997 126.141 347.52 126.141 341.997C126.141 336.474 130.77 331.997 136.481 331.997C142.191 331.997 146.82 336.474 146.82 341.997C152.531 341.997 157.16 346.474 157.16 351.997C157.16 357.52 152.531 361.997 146.82 361.997C141.11 361.997 136.481 357.52 136.481 351.997ZM95.1227 391.997C89.4122 391.997 84.7832 387.52 84.7832 381.997C84.7832 376.474 89.4122 371.997 95.1227 371.997C100.833 371.997 105.462 376.474 105.462 381.997C111.173 381.997 115.802 386.474 115.802 391.997C115.802 397.52 111.173 401.997 105.462 401.997C99.7517 401.997 95.1227 397.52 95.1227 391.997ZM103.394 381.997C103.394 377.579 99.6907 373.997 95.1227 373.997C90.5547 373.997 86.8511 377.579 86.8511 381.997C86.8511 386.415 90.5547 389.997 95.1227 389.997C99.6907 389.997 103.394 386.415 103.394 381.997ZM144.752 341.997C144.752 337.579 141.049 333.997 136.481 333.997C131.913 333.997 128.209 337.579 128.209 341.997C128.209 346.415 131.913 349.997 136.481 349.997C141.049 349.997 144.752 346.415 144.752 341.997Z" fill="black"/>
<path fill-rule="evenodd" clip-rule="evenodd" d="M136.481 269.997C130.77 269.997 126.141 265.52 126.141 259.997C126.141 254.474 130.77 249.997 136.481 249.997C142.191 249.997 146.82 254.474 146.82 259.997C152.531 259.997 157.16 264.474 157.16 269.997C157.16 275.52 152.531 279.997 146.82 279.997C141.11 279.997 136.481 275.52 136.481 269.997ZM95.1227 309.997C89.4122 309.997 84.7832 305.52 84.7832 299.997C84.7832 294.474 89.4122 289.997 95.1227 289.997C100.833 289.997 105.462 294.474 105.462 299.997C111.173 299.997 115.802 304.474 115.802 309.997C115.802 315.52 111.173 319.997 105.462 319.997C99.7517 319.997 95.1227 315.52 95.1227 309.997ZM103.394 299.997C103.394 295.579 99.6907 291.997 95.1227 291.997C90.5547 291.997 86.8511 295.579 86.8511 299.997C86.8511 304.415 90.5547 307.997 95.1227 307.997C99.6907 307.997 103.394 304.415 103.394 299.997ZM144.752 259.997C144.752 255.579 141.049 251.997 136.481 251.997C131.913 251.997 128.209 255.579 128.209 259.997C128.209 264.415 131.913 267.997 136.481 267.997C141.049 267.997 144.752 264.415 144.752 259.997Z" fill="black"/>
<path fill-rule="evenodd" clip-rule="evenodd" d="M136.481 187.997C130.77 187.997 126.141 183.52 126.141 177.997C126.141 172.474 130.77 167.997 136.481 167.997C142.191 167.997 146.82 172.474 146.82 177.997C152.531 177.997 157.16 182.474 157.16 187.997C157.16 193.52 152.531 197.997 146.82 197.997C141.11 197.997 136.481 193.52 136.481 187.997ZM95.1227 227.997C89.4122 227.997 84.7832 223.52 84.7832 217.997C84.7832 212.474 89.4122 207.997 95.1227 207.997C100.833 207.997 105.462 212.474 105.462 217.997C111.173 217.997 115.802 222.474 115.802 227.997C115.802 233.52 111.173 237.997 105.462 237.997C99.7517 237.997 95.1227 233.52 95.1227 227.997ZM103.394 217.997C103.394 213.579 99.6907 209.997 95.1227 209.997C90.5547 209.997 86.8511 213.579 86.8511 217.997C86.8511 222.415 90.5547 225.997 95.1227 225.997C99.6907 225.997 103.394 222.415 103.394 217.997ZM144.752 177.997C144.752 173.579 141.049 169.997 136.481 169.997C131.913 169.997 128.209 173.579 128.209 177.997C128.209 182.415 131.913 185.997 136.481 185.997C141.049 185.997 144.752 182.415 144.752 177.997Z" fill="black"/>
<path fill-rule="evenodd" clip-rule="evenodd" d="M136.481 105.997C130.77 105.997 126.141 101.52 126.141 95.9966C126.141 90.4736 130.77 85.9966 136.481 85.9966C142.191 85.9966 146.82 90.4736 146.82 95.9966C152.531 95.9966 157.16 100.474 157.16 105.997C157.16 111.52 152.531 115.997 146.82 115.997C141.11 115.997 136.481 111.52 136.481 105.997ZM95.1227 145.997C89.4122 145.997 84.7832 141.52 84.7832 135.997C84.7832 130.474 89.4122 125.997 95.1227 125.997C100.833 125.997 105.462 130.474 105.462 135.997C111.173 135.997 115.802 140.474 115.802 145.997C115.802 151.52 111.173 155.997 105.462 155.997C99.7517 155.997 95.1227 151.52 95.1227 145.997ZM103.394 135.997C103.394 131.579 99.6907 127.997 95.1227 127.997C90.5547 127.997 86.8511 131.579 86.8511 135.997C86.8511 140.415 90.5547 143.997 95.1227 143.997C99.6907 143.997 103.394 140.415 103.394 135.997ZM144.752 95.9966C144.752 91.5786 141.049 87.9966 136.481 87.9966C131.913 87.9966 128.209 91.5786 128.209 95.9966C128.209 100.415 131.913 103.997 136.481 103.997C141.049 103.997 144.752 100.415 144.752 95.9966Z" fill="black"/>
<path fill-rule="evenodd" clip-rule="evenodd" d="M221.264 515.997C215.554 515.997 210.925 511.52 210.925 505.997C210.925 500.474 215.554 495.997 221.264 495.997C226.975 495.997 231.604 500.474 231.604 505.997C237.314 505.997 241.943 510.474 241.943 515.997C241.943 521.52 237.314 525.997 231.604 525.997C225.893 525.997 221.264 521.52 221.264 515.997ZM179.906 555.997C174.196 555.997 169.567 551.52 169.567 545.997C169.567 540.474 174.196 535.997 179.906 535.997C185.617 535.997 190.246 540.474 190.246 545.997C195.956 545.997 200.585 550.474 200.585 555.997C200.585 561.52 195.956 565.997 190.246 565.997C184.535 565.997 179.906 561.52 179.906 555.997ZM188.178 545.997C188.178 541.579 184.474 537.997 179.906 537.997C175.338 537.997 171.635 541.579 171.635 545.997C171.635 550.415 175.338 553.997 179.906 553.997C184.474 553.997 188.178 550.415 188.178 545.997ZM229.536 505.997C229.536 501.579 225.832 497.997 221.264 497.997C216.696 497.997 212.993 501.579 212.993 505.997C212.993 510.415 216.696 513.997 221.264 513.997C225.832 513.997 229.536 510.415 229.536 505.997Z" fill="black"/>
<path fill-rule="evenodd" clip-rule="evenodd" d="M221.264 433.997C215.554 433.997 210.925 429.52 210.925 423.997C210.925 418.474 215.554 413.997 221.264 413.997C226.975 413.997 231.604 418.474 231.604 423.997C237.314 423.997 241.943 428.474 241.943 433.997C241.943 439.52 237.314 443.997 231.604 443.997C225.893 443.997 221.264 439.52 221.264 433.997ZM179.906 473.997C174.196 473.997 169.567 469.52 169.567 463.997C169.567 458.474 174.196 453.997 179.906 453.997C185.617 453.997 190.246 458.474 190.246 463.997C195.956 463.997 200.585 468.474 200.585 473.997C200.585 479.52 195.956 483.997 190.246 483.997C184.535 483.997 179.906 479.52 179.906 473.997ZM188.178 463.997C188.178 459.579 184.474 455.997 179.906 455.997C175.338 455.997 171.635 459.579 171.635 463.997C171.635 468.415 175.338 471.997 179.906 471.997C184.474 471.997 188.178 468.415 188.178 463.997ZM229.536 423.997C229.536 419.579 225.832 415.997 221.264 415.997C216.696 415.997 212.993 419.579 212.993 423.997C212.993 428.415 216.696 431.997 221.264 431.997C225.832 431.997 229.536 428.415 229.536 423.997Z" fill="black"/>
<path fill-rule="evenodd" clip-rule="evenodd" d="M221.264 351.997C215.554 351.997 210.925 347.52 210.925 341.997C210.925 336.474 215.554 331.997 221.264 331.997C226.975 331.997 231.604 336.474 231.604 341.997C237.314 341.997 241.943 346.474 241.943 351.997C241.943 357.52 237.314 361.997 231.604 361.997C225.893 361.997 221.264 357.52 221.264 351.997ZM179.906 391.997C174.196 391.997 169.567 387.52 169.567 381.997C169.567 376.474 174.196 371.997 179.906 371.997C185.617 371.997 190.246 376.474 190.246 381.997C195.956 381.997 200.585 386.474 200.585 391.997C200.585 397.52 195.956 401.997 190.246 401.997C184.535 401.997 179.906 397.52 179.906 391.997ZM188.178 381.997C188.178 377.579 184.474 373.997 179.906 373.997C175.338 373.997 171.635 377.579 171.635 381.997C171.635 386.415 175.338 389.997 179.906 389.997C184.474 389.997 188.178 386.415 188.178 381.997ZM229.536 341.997C229.536 337.579 225.832 333.997 221.264 333.997C216.696 333.997 212.993 337.579 212.993 341.997C212.993 346.415 216.696 349.997 221.264 349.997C225.832 349.997 229.536 346.415 229.536 341.997Z" fill="black"/>
<path fill-rule="evenodd" clip-rule="evenodd" d="M221.264 269.997C215.554 269.997 210.925 265.52 210.925 259.997C210.925 254.474 215.554 249.997 221.264 249.997C226.975 249.997 231.604 254.474 231.604 259.997C237.314 259.997 241.943 264.474 241.943 269.997C241.943 275.52 237.314 279.997 231.604 279.997C225.893 279.997 221.264 275.52 221.264 269.997ZM179.906 309.997C174.196 309.997 169.567 305.52 169.567 299.997C169.567 294.474 174.196 289.997 179.906 289.997C185.617 289.997 190.246 294.474 190.246 299.997C195.956 299.997 200.585 304.474 200.585 309.997C200.585 315.52 195.956 319.997 190.246 319.997C184.535 319.997 179.906 315.52 179.906 309.997ZM188.178 299.997C188.178 295.579 184.474 291.997 179.906 291.997C175.338 291.997 171.635 295.579 171.635 299.997C171.635 304.415 175.338 307.997 179.906 307.997C184.474 307.997 188.178 304.415 188.178 299.997ZM229.536 259.997C229.536 255.579 225.832 251.997 221.264 251.997C216.696 251.997 212.993 255.579 212.993 259.997C212.993 264.415 216.696 267.997 221.264 267.997C225.832 267.997 229.536 264.415 229.536 259.997Z" fill="black"/>
<path fill-rule="evenodd" clip-rule="evenodd" d="M221.264 187.997C215.554 187.997 210.925 183.52 210.925 177.997C210.925 172.474 215.554 167.997 221.264 167.997C226.975 167.997 231.604 172.474 231.604 177.997C237.314 177.997 241.943 182.474 241.943 187.997C241.943 193.52 237.314 197.997 231.604 197.997C225.893 197.997 221.264 193.52 221.264 187.997ZM179.906 227.997C174.196 227.997 169.567 223.52 169.567 217.997C169.567 212.474 174.196 207.997 179.906 207.997C185.617 207.997 190.246 212.474 190.246 217.997C195.956 217.997 200.585 222.474 200.585 227.997C200.585 233.52 195.956 237.997 190.246 237.997C184.535 237.997 179.906 233.52 179.906 227.997ZM188.178 217.997C188.178 213.579 184.474 209.997 179.906 209.997C175.338 209.997 171.635 213.579 171.635 217.997C171.635 222.415 175.338 225.997 179.906 225.997C184.474 225.997 188.178 222.415 188.178 217.997ZM229.536 177.997C229.536 173.579 225.832 169.997 221.264 169.997C216.696 169.997 212.993 173.579 212.993 177.997C212.993 182.415 216.696 185.997 221.264 185.997C225.832 185.997 229.536 182.415 229.536 177.997Z" fill="black"/>
<path fill-rule="evenodd" clip-rule="evenodd" d="M221.264 105.997C215.554 105.997 210.925 101.52 210.925 95.9966C210.925 90.4736 215.554 85.9966 221.264 85.9966C226.975 85.9966 231.604 90.4736 231.604 95.9966C237.314 95.9966 241.943 100.474 241.943 105.997C241.943 111.52 237.314 115.997 231.604 115.997C225.893 115.997 221.264 111.52 221.264 105.997ZM179.906 145.997C174.196 145.997 169.567 141.52 169.567 135.997C169.567 130.474 174.196 125.997 179.906 125.997C185.617 125.997 190.246 130.474 190.246 135.997C195.956 135.997 200.585 140.474 200.585 145.997C200.585 151.52 195.956 155.997 190.246 155.997C184.535 155.997 179.906 151.52 179.906 145.997ZM188.178 135.997C188.178 131.579 184.474 127.997 179.906 127.997C175.338 127.997 171.635 131.579 171.635 135.997C171.635 140.415 175.338 143.997 179.906 143.997C184.474 143.997 188.178 140.415 188.178 135.997ZM229.536 95.9966C229.536 91.5786 225.832 87.9966 221.264 87.9966C216.696 87.9966 212.993 91.5786 212.993 95.9966C212.993 100.415 216.696 103.997 221.264 103.997C225.832 103.997 229.536 100.415 229.536 95.9966Z" fill="black"/>
<path fill-rule="evenodd" clip-rule="evenodd" d="M306.049 515.997C300.338 515.997 295.709 511.52 295.709 505.997C295.709 500.474 300.338 495.997 306.049 495.997C311.759 495.997 316.388 500.474 316.388 505.997C322.099 505.997 326.728 510.474 326.728 515.997C326.728 521.52 322.099 525.997 316.388 525.997C310.678 525.997 306.049 521.52 306.049 515.997ZM264.691 555.997C258.98 555.997 254.351 551.52 254.351 545.997C254.351 540.474 258.98 535.997 264.691 535.997C270.401 535.997 275.03 540.474 275.03 545.997C280.741 545.997 285.37 550.474 285.37 555.997C285.37 561.52 280.741 565.997 275.03 565.997C269.32 565.997 264.691 561.52 264.691 555.997ZM272.962 545.997C272.962 541.579 269.259 537.997 264.691 537.997C260.123 537.997 256.419 541.579 256.419 545.997C256.419 550.415 260.123 553.997 264.691 553.997C269.259 553.997 272.962 550.415 272.962 545.997ZM314.32 505.997C314.32 501.579 310.617 497.997 306.049 497.997C301.481 497.997 297.777 501.579 297.777 505.997C297.777 510.415 301.481 513.997 306.049 513.997C310.617 513.997 314.32 510.415 314.32 505.997Z" fill="black"/>
<path fill-rule="evenodd" clip-rule="evenodd" d="M306.049 433.997C300.338 433.997 295.709 429.52 295.709 423.997C295.709 418.474 300.338 413.997 306.049 413.997C311.759 413.997 316.388 418.474 316.388 423.997C322.099 423.997 326.728 428.474 326.728 433.997C326.728 439.52 322.099 443.997 316.388 443.997C310.678 443.997 306.049 439.52 306.049 433.997ZM264.691 473.997C258.98 473.997 254.351 469.52 254.351 463.997C254.351 458.474 258.98 453.997 264.691 453.997C270.401 453.997 275.03 458.474 275.03 463.997C280.741 463.997 285.37 468.474 285.37 473.997C285.37 479.52 280.741 483.997 275.03 483.997C269.32 483.997 264.691 479.52 264.691 473.997ZM272.962 463.997C272.962 459.579 269.259 455.997 264.691 455.997C260.123 455.997 256.419 459.579 256.419 463.997C256.419 468.415 260.123 471.997 264.691 471.997C269.259 471.997 272.962 468.415 272.962 463.997ZM314.32 423.997C314.32 419.579 310.617 415.997 306.049 415.997C301.481 415.997 297.777 419.579 297.777 423.997C297.777 428.415 301.481 431.997 306.049 431.997C310.617 431.997 314.32 428.415 314.32 423.997Z" fill="black"/>
<path fill-rule="evenodd" clip-rule="evenodd" d="M306.049 351.997C300.338 351.997 295.709 347.52 295.709 341.997C295.709 336.474 300.338 331.997 306.049 331.997C311.759 331.997 316.388 336.474 316.388 341.997C322.099 341.997 326.728 346.474 326.728 351.997C326.728 357.52 322.099 361.997 316.388 361.997C310.678 361.997 306.049 357.52 306.049 351.997ZM264.691 391.997C258.98 391.997 254.351 387.52 254.351 381.997C254.351 376.474 258.98 371.997 264.691 371.997C270.401 371.997 275.03 376.474 275.03 381.997C280.741 381.997 285.37 386.474 285.37 391.997C285.37 397.52 280.741 401.997 275.03 401.997C269.32 401.997 264.691 397.52 264.691 391.997ZM272.962 381.997C272.962 377.579 269.259 373.997 264.691 373.997C260.123 373.997 256.419 377.579 256.419 381.997C256.419 386.415 260.123 389.997 264.691 389.997C269.259 389.997 272.962 386.415 272.962 381.997ZM314.32 341.997C314.32 337.579 310.617 333.997 306.049 333.997C301.481 333.997 297.777 337.579 297.777 341.997C297.777 346.415 301.481 349.997 306.049 349.997C310.617 349.997 314.32 346.415 314.32 341.997Z" fill="black"/>
<path fill-rule="evenodd" clip-rule="evenodd" d="M306.049 269.997C300.338 269.997 295.709 265.52 295.709 259.997C295.709 254.474 300.338 249.997 306.049 249.997C311.759 249.997 316.388 254.474 316.388 259.997C322.099 259.997 326.728 264.474 326.728 269.997C326.728 275.52 322.099 279.997 316.388 279.997C310.678 279.997 306.049 275.52 306.049 269.997ZM264.691 309.997C258.98 309.997 254.351 305.52 254.351 299.997C254.351 294.474 258.98 289.997 264.691 289.997C270.401 289.997 275.03 294.474 275.03 299.997C280.741 299.997 285.37 304.474 285.37 309.997C285.37 315.52 280.741 319.997 275.03 319.997C269.32 319.997 264.691 315.52 264.691 309.997ZM272.962 299.997C272.962 295.579 269.259 291.997 264.691 291.997C260.123 291.997 256.419 295.579 256.419 299.997C256.419 304.415 260.123 307.997 264.691 307.997C269.259 307.997 272.962 304.415 272.962 299.997ZM314.32 259.997C314.32 255.579 310.617 251.997 306.049 251.997C301.481 251.997 297.777 255.579 297.777 259.997C297.777 264.415 301.481 267.997 306.049 267.997C310.617 267.997 314.32 264.415 314.32 259.997Z" fill="black"/>
<path fill-rule="evenodd" clip-rule="evenodd" d="M306.049 187.997C300.338 187.997 295.709 183.52 295.709 177.997C295.709 172.474 300.338 167.997 306.049 167.997C311.759 167.997 316.388 172.474 316.388 177.997C322.099 177.997 326.728 182.474 326.728 187.997C326.728 193.52 322.099 197.997 316.388 197.997C310.678 197.997 306.049 193.52 306.049 187.997ZM264.691 227.997C258.98 227.997 254.351 223.52 254.351 217.997C254.351 212.474 258.98 207.997 264.691 207.997C270.401 207.997 275.03 212.474 275.03 217.997C280.741 217.997 285.37 222.474 285.37 227.997C285.37 233.52 280.741 237.997 275.03 237.997C269.32 237.997 264.691 233.52 264.691 227.997ZM272.962 217.997C272.962 213.579 269.259 209.997 264.691 209.997C260.123 209.997 256.419 213.579 256.419 217.997C256.419 222.415 260.123 225.997 264.691 225.997C269.259 225.997 272.962 222.415 272.962 217.997ZM314.32 177.997C314.32 173.579 310.617 169.997 306.049 169.997C301.481 169.997 297.777 173.579 297.777 177.997C297.777 182.415 301.481 185.997 306.049 185.997C310.617 185.997 314.32 182.415 314.32 177.997Z" fill="black"/>
<path fill-rule="evenodd" clip-rule="evenodd" d="M306.049 105.997C300.338 105.997 295.709 101.52 295.709 95.9966C295.709 90.4736 300.338 85.9966 306.049 85.9966C311.759 85.9966 316.388 90.4736 316.388 95.9966C322.099 95.9966 326.728 100.474 326.728 105.997C326.728 111.52 322.099 115.997 316.388 115.997C310.678 115.997 306.049 111.52 306.049 105.997ZM264.691 145.997C258.98 145.997 254.351 141.52 254.351 135.997C254.351 130.474 258.98 125.997 264.691 125.997C270.401 125.997 275.03 130.474 275.03 135.997C280.741 135.997 285.37 140.474 285.37 145.997C285.37 151.52 280.741 155.997 275.03 155.997C269.32 155.997 264.691 151.52 264.691 145.997ZM272.962 135.997C272.962 131.579 269.259 127.997 264.691 127.997C260.123 127.997 256.419 131.579 256.419 135.997C256.419 140.415 260.123 143.997 264.691 143.997C269.259 143.997 272.962 140.415 272.962 135.997ZM314.32 95.9966C314.32 91.5786 310.617 87.9966 306.049 87.9966C301.481 87.9966 297.777 91.5786 297.777 95.9966C297.777 100.415 301.481 103.997 306.049 103.997C310.617 103.997 314.32 100.415 314.32 95.9966Z" fill="black"/>
<path fill-rule="evenodd" clip-rule="evenodd" d="M51.6966 23.9966C45.986 23.9966 41.3571 19.5196 41.3571 13.9966C41.3571 8.47358 45.986 3.99658 51.6966 3.99658C57.4071 3.99658 62.0361 8.47358 62.0361 13.9966C67.7466 13.9966 72.3756 18.4736 72.3756 23.9966C72.3756 29.5196 67.7466 33.9966 62.0361 33.9966C56.3256 33.9966 51.6966 29.5196 51.6966 23.9966ZM10.3385 63.9966C4.62802 63.9966 -0.000976562 59.5196 -0.000976562 53.9966C-0.000976562 48.4736 4.62802 43.9966 10.3385 43.9966C16.049 43.9966 20.678 48.4736 20.678 53.9966C26.3885 53.9966 31.0175 58.4736 31.0175 63.9966C31.0175 69.5196 26.3885 73.9966 20.678 73.9966C14.9675 73.9966 10.3385 69.5196 10.3385 63.9966ZM18.6101 53.9966C18.6101 49.5786 14.9065 45.9966 10.3385 45.9966C5.77054 45.9966 2.06692 49.5786 2.06692 53.9966C2.06692 58.4146 5.77054 61.9966 10.3385 61.9966C14.9065 61.9966 18.6101 58.4146 18.6101 53.9966ZM59.9682 13.9966C59.9682 9.57858 56.2646 5.99658 51.6966 5.99658C47.1286 5.99658 43.425 9.57858 43.425 13.9966C43.425 18.4146 47.1286 21.9966 51.6966 21.9966C56.2646 21.9966 59.9682 18.4146 59.9682 13.9966Z" fill="black"/>
<path fill-rule="evenodd" clip-rule="evenodd" d="M136.481 23.9966C130.77 23.9966 126.141 19.5196 126.141 13.9966C126.141 8.47358 130.77 3.99658 136.481 3.99658C142.191 3.99658 146.82 8.47358 146.82 13.9966C152.531 13.9966 157.16 18.4736 157.16 23.9966C157.16 29.5196 152.531 33.9966 146.82 33.9966C141.11 33.9966 136.481 29.5196 136.481 23.9966ZM95.1227 63.9966C89.4122 63.9966 84.7832 59.5196 84.7832 53.9966C84.7832 48.4736 89.4122 43.9966 95.1227 43.9966C100.833 43.9966 105.462 48.4736 105.462 53.9966C111.173 53.9966 115.802 58.4736 115.802 63.9966C115.802 69.5196 111.173 73.9966 105.462 73.9966C99.7517 73.9966 95.1227 69.5196 95.1227 63.9966ZM103.394 53.9966C103.394 49.5786 99.6907 45.9966 95.1227 45.9966C90.5547 45.9966 86.8511 49.5786 86.8511 53.9966C86.8511 58.4146 90.5547 61.9966 95.1227 61.9966C99.6907 61.9966 103.394 58.4146 103.394 53.9966ZM144.752 13.9966C144.752 9.57858 141.049 5.99658 136.481 5.99658C131.913 5.99658 128.209 9.57858 128.209 13.9966C128.209 18.4146 131.913 21.9966 136.481 21.9966C141.049 21.9966 144.752 18.4146 144.752 13.9966Z" fill="black"/>
<path fill-rule="evenodd" clip-rule="evenodd" d="M221.264 23.9966C215.554 23.9966 210.925 19.5196 210.925 13.9966C210.925 8.47358 215.554 3.99658 221.264 3.99658C226.975 3.99658 231.604 8.47358 231.604 13.9966C237.314 13.9966 241.943 18.4736 241.943 23.9966C241.943 29.5196 237.314 33.9966 231.604 33.9966C225.893 33.9966 221.264 29.5196 221.264 23.9966ZM179.906 63.9966C174.196 63.9966 169.567 59.5196 169.567 53.9966C169.567 48.4736 174.196 43.9966 179.906 43.9966C185.617 43.9966 190.246 48.4736 190.246 53.9966C195.956 53.9966 200.585 58.4736 200.585 63.9966C200.585 69.5196 195.956 73.9966 190.246 73.9966C184.535 73.9966 179.906 69.5196 179.906 63.9966ZM188.178 53.9966C188.178 49.5786 184.474 45.9966 179.906 45.9966C175.338 45.9966 171.635 49.5786 171.635 53.9966C171.635 58.4146 175.338 61.9966 179.906 61.9966C184.474 61.9966 188.178 58.4146 188.178 53.9966ZM229.536 13.9966C229.536 9.57858 225.832 5.99658 221.264 5.99658C216.696 5.99658 212.993 9.57858 212.993 13.9966C212.993 18.4146 216.696 21.9966 221.264 21.9966C225.832 21.9966 229.536 18.4146 229.536 13.9966Z" fill="black"/>
<path fill-rule="evenodd" clip-rule="evenodd" d="M306.049 23.9966C300.338 23.9966 295.709 19.5196 295.709 13.9966C295.709 8.47358 300.338 3.99658 306.049 3.99658C311.759 3.99658 316.388 8.47358 316.388 13.9966C322.099 13.9966 326.728 18.4736 326.728 23.9966C326.728 29.5196 322.099 33.9966 316.388 33.9966C310.678 33.9966 306.049 29.5196 306.049 23.9966ZM264.691 63.9966C258.98 63.9966 254.351 59.5196 254.351 53.9966C254.351 48.4736 258.98 43.9966 264.691 43.9966C270.401 43.9966 275.03 48.4736 275.03 53.9966C280.741 53.9966 285.37 58.4736 285.37 63.9966C285.37 69.5196 280.741 73.9966 275.03 73.9966C269.32 73.9966 264.691 69.5196 264.691 63.9966ZM272.962 53.9966C272.962 49.5786 269.259 45.9966 264.691 45.9966C260.123 45.9966 256.419 49.5786 256.419 53.9966C256.419 58.4146 260.123 61.9966 264.691 61.9966C269.259 61.9966 272.962 58.4146 272.962 53.9966ZM314.32 13.9966C314.32 9.57858 310.617 5.99658 306.049 5.99658C301.481 5.99658 297.777 9.57858 297.777 13.9966C297.777 18.4146 301.481 21.9966 306.049 21.9966C310.617 21.9966 314.32 18.4146 314.32 13.9966Z" fill="black"/>
</g>
<defs>
<clipPath id="clip0_495_5897">
<rect width="566" height="335" fill="white" transform="matrix(0 -1 1 0 -0.000976562 565.997)"/>
</clipPath>
</defs>
</svg>
